<svg version="1.1" id="Layer_1" xmlns="http://www.w3.org/2000/svg" xmlns:xlink="http://www.w3.org/1999/xlink" x="0px" y="0px"
	 width="100%" viewBox="0 0 512 512" enable-background="new 0 0 512 512" xml:space="preserve">
<path fill="#FFFFFF" opacity="1.000000" stroke="none" 
	d="
M381.000000,513.000000 
	C298.645782,513.000000 216.291550,513.000000 133.336441,512.617859 
	C122.796104,511.203522 114.090309,506.949951 106.579437,500.773071 
	C92.400826,489.112640 83.286697,473.889069 83.205627,455.485565 
	C82.770393,356.682251 82.983070,257.875946 83.073448,159.070801 
	C83.076477,155.761505 82.475899,153.582153 79.083160,152.539810 
	C61.351967,147.092361 47.937191,127.255074 48.713535,107.159142 
	C49.651421,82.881660 70.232841,63.311638 93.023918,63.046852 
	C112.515755,62.820396 132.012299,63.004860 151.506760,62.990021 
	C152.941757,62.988930 154.376648,62.845688 156.000000,62.758400 
	C156.000000,57.108704 155.975311,51.797512 156.004623,46.486626 
	C156.093750,30.341036 163.468246,17.986969 176.476105,9.089919 
	C181.485153,5.663849 187.463364,3.654723 193.000000,0.999999 
	C235.020889,1.000000 277.041779,1.000000 319.655884,1.375858 
	C325.011688,3.553137 330.128387,4.744553 334.472687,7.266510 
	C349.534027,16.009880 357.028870,29.573919 357.956055,46.806660 
	C358.239471,52.074512 358.000000,57.370502 358.000000,63.000000 
	C360.056213,63.000000 361.682556,63.000000 363.308899,63.000000 
	C382.468384,63.000000 401.629272,62.862049 420.786865,63.051872 
	C432.231049,63.165268 442.453827,67.410271 450.544525,75.261063 
	C462.788300,87.141777 467.609741,101.816757 463.988403,118.804245 
	C460.566528,134.855972 451.336761,146.160675 435.886749,151.938766 
	C432.106720,153.352448 430.884491,155.155380 430.890564,159.270401 
	C431.031982,255.234268 431.014191,351.198395 430.957489,447.162445 
	C430.954681,451.904175 430.693665,456.703918 429.936249,461.376678 
	C427.081116,478.990631 418.883942,493.542877 403.429138,502.925873 
	C396.476685,507.146881 388.507751,509.693604 381.000000,513.000000 
M107.000000,168.507874 
	C107.000000,260.172089 106.903542,351.836578 107.176826,443.500000 
	C107.199524,451.115845 108.415001,459.275238 111.346603,466.224335 
	C117.959869,481.900299 131.165588,488.909332 147.823349,488.944305 
	C212.821426,489.080719 277.820007,489.042023 342.818268,488.955414 
	C352.734375,488.942200 362.652435,488.399445 372.564789,487.986359 
	C392.263763,487.165436 405.722229,469.584808 405.795654,452.497803 
	C406.216064,354.668732 406.000916,256.836945 405.989868,159.006058 
	C405.989716,157.735825 405.837219,156.465637 405.761810,155.288544 
	C306.022675,155.288544 206.619202,155.288544 107.000000,155.288544 
	C107.000000,159.553848 107.000000,163.532410 107.000000,168.507874 
M164.500000,88.000000 
	C141.504044,88.000000 118.501785,88.318962 95.514824,87.864090 
	C84.191147,87.640022 74.009850,98.279671 73.846237,108.510483 
	C73.678314,119.011719 82.691971,130.055450 95.540947,130.045837 
	C203.189087,129.965240 310.837341,130.003784 418.485535,129.994736 
	C430.601501,129.993713 439.798096,120.553284 440.062714,108.482834 
	C440.285950,98.299362 429.840088,87.830826 418.456207,87.864571 
	C334.138062,88.114555 249.818863,88.000000 164.500000,88.000000 
M223.500488,25.000000 
	C215.925354,25.333313 208.346466,25.598892 200.776184,26.019552 
	C193.631729,26.416548 188.434586,29.948521 184.494171,35.904453 
	C178.799866,44.511417 181.774048,53.841133 181.022156,62.670708 
	C232.107376,62.670708 282.487701,62.670708 332.999969,62.670708 
	C332.999969,56.856377 333.308380,51.348698 332.918243,45.890953 
	C332.477051,39.718555 329.281219,34.891441 324.556335,30.847603 
	C318.959503,26.057482 312.237885,25.123344 305.441711,25.076502 
	C278.462341,24.890539 251.480927,25.000000 223.500488,25.000000 
z"/>
<path fill="none" opacity="1.000000" stroke="none" 
	d="
M381.468658,513.000000 
	C388.507751,509.693604 396.476685,507.146881 403.429138,502.925873 
	C418.883942,493.542877 427.081116,478.990631 429.936249,461.376678 
	C430.693665,456.703918 430.954681,451.904175 430.957489,447.162445 
	C431.014191,351.198395 431.031982,255.234268 430.890564,159.270401 
	C430.884491,155.155380 432.106720,153.352448 435.886749,151.938766 
	C451.336761,146.160675 460.566528,134.855972 463.988403,118.804245 
	C467.609741,101.816757 462.788300,87.141777 450.544525,75.261063 
	C442.453827,67.410271 432.231049,63.165268 420.786865,63.051872 
	C401.629272,62.862049 382.468384,63.000000 363.308899,63.000000 
	C361.682556,63.000000 360.056213,63.000000 358.000000,63.000000 
	C358.000000,57.370502 358.239471,52.074512 357.956055,46.806660 
	C357.028870,29.573919 349.534027,16.009880 334.472687,7.266510 
	C330.128387,4.744553 325.011688,3.553137 320.124542,1.375858 
	C384.299713,1.000000 448.599396,1.000000 512.949585,1.000000 
	C512.949585,171.543808 512.949585,342.087646 512.949585,513.000000 
	C469.313141,513.000000 425.625214,513.000000 381.468658,513.000000 
z"/>
<path fill="none" opacity="1.000000" stroke="none" 
	d="
M192.531342,0.999999 
	C187.463364,3.654723 181.485153,5.663849 176.476105,9.089919 
	C163.468246,17.986969 156.093750,30.341036 156.004623,46.486626 
	C155.975311,51.797512 156.000000,57.108704 156.000000,62.758400 
	C154.376648,62.845688 152.941757,62.988930 151.506760,62.990021 
	C132.012299,63.004860 112.515755,62.820396 93.023918,63.046852 
	C70.232841,63.311638 49.651421,82.881660 48.713535,107.159142 
	C47.937191,127.255074 61.351967,147.092361 79.083160,152.539810 
	C82.475899,153.582153 83.076477,155.761505 83.073448,159.070801 
	C82.983070,257.875946 82.770393,356.682251 83.205627,455.485565 
	C83.286697,473.889069 92.400826,489.112640 106.579437,500.773071 
	C114.090309,506.949951 122.796104,511.203522 132.867783,512.617859 
	C89.023033,513.000000 45.046070,513.000000 1.034552,513.000000 
	C1.034552,342.445709 1.034552,171.891434 1.034552,1.000000 
	C64.687164,1.000000 128.374924,1.000000 192.531342,0.999999 
z"/>
<path fill="none" opacity="1.000000" stroke="none" 
	d="
M107.000000,168.009430 
	C107.000000,163.532410 107.000000,159.553848 107.000000,155.288544 
	C206.619202,155.288544 306.022675,155.288544 405.761810,155.288544 
	C405.837219,156.465637 405.989716,157.735825 405.989868,159.006058 
	C406.000916,256.836945 406.216064,354.668732 405.795654,452.497803 
	C405.722229,469.584808 392.263763,487.165436 372.564789,487.986359 
	C362.652435,488.399445 352.734375,488.942200 342.818268,488.955414 
	C277.820007,489.042023 212.821426,489.080719 147.823349,488.944305 
	C131.165588,488.909332 117.959869,481.900299 111.346603,466.224335 
	C108.415001,459.275238 107.199524,451.115845 107.176826,443.500000 
	C106.903542,351.836578 107.000000,260.172089 107.000000,168.009430 
M199.000000,413.483093 
	C199.000000,343.997986 199.011169,274.512878 198.958557,205.027786 
	C198.956482,202.292953 198.280502,199.564514 198.030685,196.822876 
	C197.297379,188.775299 191.291061,185.805450 185.110977,186.082260 
	C178.642487,186.371979 173.812469,192.746597 173.834778,199.247238 
	C174.093323,274.563599 173.999268,349.881165 174.001205,425.198395 
	C174.001389,431.968719 178.791641,437.238251 185.530869,437.904083 
	C190.741119,438.418854 196.947037,433.551025 197.927277,427.653656 
	C198.647461,423.320923 198.667770,418.871826 199.000000,413.483093 
M316.865814,431.308777 
	C319.289429,433.205597 321.508209,436.343079 324.172363,436.782898 
	C335.260559,438.613495 340.030212,432.847748 340.024048,422.662384 
	C339.979279,348.549866 340.000000,274.437317 339.999969,200.324799 
	C339.999969,199.325531 340.034912,198.324814 339.993774,197.327225 
	C339.722839,190.754990 332.220703,184.013428 324.415436,186.886414 
	C317.411957,189.464294 315.002319,192.639099 315.001923,200.781067 
	C314.998596,271.063080 314.967896,341.345093 315.054260,411.627014 
	C315.062103,418.009735 315.831268,424.391571 316.865814,431.308777 
M244.913391,426.433044 
	C245.574875,432.647827 251.103638,437.924347 256.732666,437.713104 
	C263.558136,437.456909 268.986053,432.514740 268.987579,426.372498 
	C269.006592,350.048859 269.014526,273.725250 268.977692,197.401627 
	C268.973999,189.720047 261.122650,184.302872 253.765961,186.714996 
	C246.717072,189.026184 244.080582,192.245346 244.062988,202.880356 
	C243.942764,275.537598 243.998093,348.195099 244.011993,420.852539 
	C244.012299,422.505188 244.191345,424.157745 244.913391,426.433044 
z"/>
<path fill="none" opacity="1.000000" stroke="none" 
	d="
M165.000000,88.000000 
	C249.818863,88.000000 334.138062,88.114555 418.456207,87.864571 
	C429.840088,87.830826 440.285950,98.299362 440.062714,108.482834 
	C439.798096,120.553284 430.601501,129.993713 418.485535,129.994736 
	C310.837341,130.003784 203.189087,129.965240 95.540947,130.045837 
	C82.691971,130.055450 73.678314,119.011719 73.846237,108.510483 
	C74.009850,98.279671 84.191147,87.640022 95.514824,87.864090 
	C118.501785,88.318962 141.504044,88.000000 165.000000,88.000000 
z"/>
<path fill="none" opacity="1.000000" stroke="none" 
	d="
M224.000381,25.000000 
	C251.480927,25.000000 278.462341,24.890539 305.441711,25.076502 
	C312.237885,25.123344 318.959503,26.057482 324.556335,30.847603 
	C329.281219,34.891441 332.477051,39.718555 332.918243,45.890953 
	C333.308380,51.348698 332.999969,56.856377 332.999969,62.670708 
	C282.487701,62.670708 232.107376,62.670708 181.022156,62.670708 
	C181.774048,53.841133 178.799866,44.511417 184.494171,35.904453 
	C188.434586,29.948521 193.631729,26.416548 200.776184,26.019552 
	C208.346466,25.598892 215.925354,25.333313 224.000381,25.000000 
z"/>
<path fill="#FFFFFF" opacity="1.000000" stroke="none" 
	d="
M199.000000,413.978851 
	C198.667770,418.871826 198.647461,423.320923 197.927277,427.653656 
	C196.947037,433.551025 190.741119,438.418854 185.530869,437.904083 
	C178.791641,437.238251 174.001389,431.968719 174.001205,425.198395 
	C173.999268,349.881165 174.093323,274.563599 173.834778,199.247238 
	C173.812469,192.746597 178.642487,186.371979 185.110977,186.082260 
	C191.291061,185.805450 197.297379,188.775299 198.030685,196.822876 
	C198.280502,199.564514 198.956482,202.292953 198.958557,205.027786 
	C199.011169,274.512878 199.000000,343.997986 199.000000,413.978851 
z"/>
<path fill="#FFFFFF" opacity="1.000000" stroke="none" 
	d="
M316.556335,431.041290 
	C315.831268,424.391571 315.062103,418.009735 315.054260,411.627014 
	C314.967896,341.345093 314.998596,271.063080 315.001923,200.781067 
	C315.002319,192.639099 317.411957,189.464294 324.415436,186.886414 
	C332.220703,184.013428 339.722839,190.754990 339.993774,197.327225 
	C340.034912,198.324814 339.999969,199.325531 339.999969,200.324799 
	C340.000000,274.437317 339.979279,348.549866 340.024048,422.662384 
	C340.030212,432.847748 335.260559,438.613495 324.172363,436.782898 
	C321.508209,436.343079 319.289429,433.205597 316.556335,431.041290 
z"/>
<path fill="#FFFFFF" opacity="1.000000" stroke="none" 
	d="
M244.600204,426.121704 
	C244.191345,424.157745 244.012299,422.505188 244.011993,420.852539 
	C243.998093,348.195099 243.942764,275.537598 244.062988,202.880356 
	C244.080582,192.245346 246.717072,189.026184 253.765961,186.714996 
	C261.122650,184.302872 268.973999,189.720047 268.977692,197.401627 
	C269.014526,273.725250 269.006592,350.048859 268.987579,426.372498 
	C268.986053,432.514740 263.558136,437.456909 256.732666,437.713104 
	C251.103638,437.924347 245.574875,432.647827 244.600204,426.121704 
z"/>
</svg>