<svg version="1.1" id="Layer_1" xmlns="http://www.w3.org/2000/svg" xmlns:xlink="http://www.w3.org/1999/xlink" x="0px" y="0px"
	 width="22" height="17" viewBox="0 0 256 203" enable-background="new 0 0 256 203" xml:space="preserve">
<path fill="#A4ADB6" opacity="1.000000" stroke="none" 
	d="
M1.000002,181.000000 
	C1.000000,121.042633 1.000000,61.085274 1.000000,1.063955 
	C86.230019,1.063955 171.460098,1.063955 257.000000,1.063955 
	C257.000000,60.687202 257.000000,120.374947 256.676208,180.633972 
	C253.645401,184.886627 251.339142,188.972244 248.133408,192.150635 
	C243.782852,196.464111 238.743759,200.083115 234.000000,204.000000 
	C163.645767,204.000000 93.291542,204.000000 22.370045,203.675812 
	C17.966393,199.832474 13.900353,196.527603 10.359531,192.732697 
	C6.956779,189.085770 4.097879,184.931396 1.000002,181.000000 
M231.442596,42.186394 
	C226.541885,47.348961 221.771271,52.643127 216.711884,57.645191 
	C207.719421,66.535728 198.457397,75.153885 189.478119,84.057388 
	C172.582855,100.810089 155.824875,117.701141 138.975174,134.499939 
	C132.873383,140.583282 125.610085,140.808472 119.544159,134.970490 
	C107.072601,122.967567 94.599899,110.962051 82.335754,98.748657 
	C73.377182,89.827141 64.824181,80.499886 55.957180,71.484520 
	C46.399193,61.766613 36.695999,52.191288 27.023352,42.586796 
	C26.163643,41.733147 25.062136,41.123013 23.307455,39.840122 
	C23.173641,42.720745 23.007420,44.658463 23.005409,46.596352 
	C22.985525,65.753105 22.989527,84.909889 22.993406,104.066658 
	C22.997421,123.889709 22.869400,143.714142 23.064955,163.535339 
	C23.199924,177.215729 29.194241,182.991425 42.641567,182.994492 
	C100.278465,183.007614 157.915359,183.008224 215.552261,182.993286 
	C228.538147,182.989914 234.333145,177.375793 234.958603,164.311523 
	C235.006363,163.313797 235.001862,162.313019 235.001923,161.313660 
	C235.004456,123.333282 235.006607,85.352898 234.997787,47.372520 
	C234.997437,45.875843 235.176743,44.278557 234.703979,42.926960 
	C234.483047,42.295380 232.903748,42.138954 231.442596,42.186394 
M152.022858,88.502449 
	C173.057770,65.934471 194.092682,43.366497 213.449478,22.598942 
	C158.386734,22.598942 99.507507,22.598942 42.134151,22.598942 
	C70.349411,52.356709 99.002800,82.576546 127.311249,112.432602 
	C136.475967,103.560867 143.995560,96.281670 152.022858,88.502449 
z"/>
<path fill="#A4ADB6" opacity="1.000000" stroke="none" 
	d="
M234.468735,204.000000 
	C238.743759,200.083115 243.782852,196.464111 248.133408,192.150635 
	C251.339142,188.972244 253.645401,184.886627 256.676208,181.102631 
	C257.000000,188.592957 257.000000,196.185898 257.000000,204.000000 
	C249.647293,204.000000 242.292389,204.000000 234.468735,204.000000 
z"/>
<path fill="none" opacity="1.000000" stroke="none" 
	d="
M1.000002,181.468735 
	C4.097879,184.931396 6.956779,189.085770 10.359531,192.732697 
	C13.900353,196.527603 17.966393,199.832474 21.901386,203.675812 
	C15.070397,204.000000 8.140795,204.000000 1.000000,204.000000 
	C1.000000,196.647171 1.000000,189.292313 1.000002,181.468735 
z"/>
<path fill="none" opacity="1.000000" stroke="none" 
	d="
M231.691345,41.976784 
	C232.903748,42.138954 234.483047,42.295380 234.703979,42.926960 
	C235.176743,44.278557 234.997437,45.875843 234.997787,47.372520 
	C235.006607,85.352898 235.004456,123.333282 235.001923,161.313660 
	C235.001862,162.313019 235.006363,163.313797 234.958603,164.311523 
	C234.333145,177.375793 228.538147,182.989914 215.552261,182.993286 
	C157.915359,183.008224 100.278465,183.007614 42.641567,182.994492 
	C29.194241,182.991425 23.199924,177.215729 23.064955,163.535339 
	C22.869400,143.714142 22.997421,123.889709 22.993406,104.066658 
	C22.989527,84.909889 22.985525,65.753105 23.005409,46.596352 
	C23.007420,44.658463 23.173641,42.720745 23.307455,39.840122 
	C25.062136,41.123013 26.163643,41.733147 27.023352,42.586796 
	C36.695999,52.191288 46.399193,61.766613 55.957180,71.484520 
	C64.824181,80.499886 73.377182,89.827141 82.335754,98.748657 
	C94.599899,110.962051 107.072601,122.967567 119.544159,134.970490 
	C125.610085,140.808472 132.873383,140.583282 138.975174,134.499939 
	C155.824875,117.701141 172.582855,100.810089 189.478119,84.057388 
	C198.457397,75.153885 207.719421,66.535728 216.711884,57.645191 
	C221.771271,52.643127 226.541885,47.348961 231.691345,41.976784 
z"/>
<path fill="none" opacity="1.000000" stroke="none" 
	d="
M151.769012,88.752457 
	C143.995560,96.281670 136.475967,103.560867 127.311249,112.432602 
	C99.002800,82.576546 70.349411,52.356709 42.134151,22.598942 
	C99.507507,22.598942 158.386734,22.598942 213.449478,22.598942 
	C194.092682,43.366497 173.057770,65.934471 151.769012,88.752457 
z"/>
</svg>