<svg version="1.1" id="Layer_1" xmlns="http://www.w3.org/2000/svg" xmlns:xlink="http://www.w3.org/1999/xlink" x="0px" y="0px"
	 width="29" height="34" viewBox="0 0 256 256" enable-background="new 0 0 256 256" xml:space="preserve">
<path fill="#A4ADB6" opacity="1.000000" stroke="none" 
	d="
M257.000000,31.000000 
	C257.000000,41.020893 257.000000,51.041790 256.642456,61.494278 
	C254.094299,65.343285 252.357849,69.183990 249.634949,72.105194 
	C237.519028,85.103531 225.250275,97.966019 212.792053,110.637001 
	C197.025345,126.672997 180.954514,142.410217 165.214386,158.471817 
	C163.474915,160.246811 162.296097,163.256256 162.144485,165.770782 
	C161.729263,172.658142 161.921677,179.587997 162.019394,186.498993 
	C162.162262,196.602707 158.024780,205.486160 153.797256,214.202942 
	C149.087021,223.915039 142.115494,231.935379 133.762375,238.901825 
	C126.747353,244.752335 119.136208,249.216782 110.587639,252.336975 
	C107.560982,253.441681 104.853302,255.420319 102.000000,257.000000 
	C88.979103,257.000000 75.958214,257.000000 62.482468,256.628845 
	C56.772301,254.103058 51.410862,252.172501 46.284973,249.744644 
	C37.159725,245.422455 29.135046,239.503723 22.268814,232.061432 
	C15.096689,224.287582 9.228380,215.754730 5.861762,205.572128 
	C4.751099,202.212830 2.648854,199.181366 1.000001,196.000000 
	C1.000000,182.979111 1.000000,169.958206 1.367989,156.493805 
	C4.581535,149.818924 7.415370,143.582169 10.275251,137.357376 
	C15.197867,126.642860 23.066799,118.091667 32.332039,111.385468 
	C39.680683,106.066498 48.191807,101.710686 56.837292,99.008629 
	C65.344803,96.349701 74.912041,94.474327 83.574753,95.609451 
	C93.387672,96.895309 99.983925,94.422318 105.371780,86.957603 
	C106.090553,85.961769 106.288567,83.350891 105.625130,82.788391 
	C99.036461,77.202049 95.436050,70.045876 95.530243,61.625431 
	C95.600662,55.330883 95.964828,48.508537 98.423943,42.896503 
	C102.094635,34.519455 108.524780,28.005911 118.145744,25.676226 
	C119.260391,25.406319 120.123833,23.655214 120.885750,22.452711 
	C123.540672,18.262533 125.601677,13.571262 128.838364,9.910301 
	C131.944504,6.396996 136.231766,3.927945 140.000000,1.000001 
	C168.687561,1.000000 197.375122,1.000000 226.510468,1.364933 
	C227.607285,2.172916 228.207520,2.723842 228.912689,3.042806 
	C239.261307,7.723732 247.304855,14.847892 252.658142,24.972284 
	C253.804626,27.140572 255.537354,28.998888 257.000000,31.000000 
M231.602448,35.975079 
	C226.145706,24.724312 210.470078,17.092010 196.868698,29.631588 
	C192.071548,34.054234 190.023178,33.937305 185.961212,28.920717 
	C180.384964,22.033981 175.380814,21.374763 168.606369,26.862871 
	C167.353577,27.877781 166.650955,29.571783 165.377243,31.410101 
	C163.294403,29.508736 161.532883,27.808569 159.674622,26.221701 
	C154.209290,21.554562 149.829117,21.964684 144.067596,27.616087 
	C140.854980,30.767302 141.354095,37.427353 144.960068,41.509571 
	C146.453064,43.199757 147.655319,45.146755 148.935440,46.902397 
	C146.128876,49.470219 143.701401,51.691200 141.141693,54.033184 
	C139.445114,52.857792 137.774414,52.027740 136.527603,50.775608 
	C132.668549,46.900124 126.802963,45.749397 123.331680,48.395557 
	C117.670357,52.711189 116.248795,58.612240 120.518173,63.932014 
	C125.075569,69.610672 130.376297,74.703682 135.469864,79.938171 
	C141.055710,85.678551 140.872543,85.942642 135.063828,91.432014 
	C127.010185,99.042885 119.060707,106.800896 111.563118,114.952553 
	C104.513672,122.616966 104.632103,122.919800 94.790680,119.847504 
	C85.821976,117.047661 76.993401,117.675179 67.894615,119.875412 
	C55.759617,122.809830 45.544888,129.091034 37.788204,138.229279 
	C26.754099,151.228668 21.355394,166.603043 23.929989,184.100174 
	C25.654068,195.817123 30.224743,206.508041 38.071266,215.034332 
	C46.363220,224.044662 56.925293,229.863846 69.124161,233.259033 
	C81.491180,236.701004 93.014809,234.200165 104.022743,230.006927 
	C110.913879,227.381897 116.864609,221.779007 122.625992,216.804306 
	C134.282501,206.739441 139.017822,193.067673 139.756989,178.247833 
	C140.084976,171.672195 137.655960,164.981186 136.733856,158.307251 
	C136.465302,156.363556 136.352463,153.697998 137.424088,152.400803 
	C140.636124,148.512650 144.474045,145.142456 148.058472,141.560883 
	C155.899872,133.725723 163.708084,125.857109 171.582718,118.055550 
	C177.384827,112.307281 183.319595,106.692642 189.105484,100.928383 
	C194.881348,95.174110 200.505920,89.268135 206.269669,83.501465 
	C212.159622,77.608528 218.201904,71.867203 224.061630,65.944862 
	C231.378036,58.550259 238.738739,48.702427 231.602448,35.975079 
z"/>
<path fill="none" opacity="1.000000" stroke="none" 
	d="
M102.468658,257.000000 
	C104.853302,255.420319 107.560982,253.441681 110.587639,252.336975 
	C119.136208,249.216782 126.747353,244.752335 133.762375,238.901825 
	C142.115494,231.935379 149.087021,223.915039 153.797256,214.202942 
	C158.024780,205.486160 162.162262,196.602707 162.019394,186.498993 
	C161.921677,179.587997 161.729263,172.658142 162.144485,165.770782 
	C162.296097,163.256256 163.474915,160.246811 165.214386,158.471817 
	C180.954514,142.410217 197.025345,126.672997 212.792053,110.637001 
	C225.250275,97.966019 237.519028,85.103531 249.634949,72.105194 
	C252.357849,69.183990 254.094299,65.343285 256.642456,61.962936 
	C257.000000,126.918678 257.000000,191.837357 257.000000,257.000000 
	C205.646027,257.000000 154.291672,257.000000 102.468658,257.000000 
z"/>
<path fill="none" opacity="1.000000" stroke="none" 
	d="
M139.531342,1.000001 
	C136.231766,3.927945 131.944504,6.396996 128.838364,9.910301 
	C125.601677,13.571262 123.540672,18.262533 120.885750,22.452711 
	C120.123833,23.655214 119.260391,25.406319 118.145744,25.676226 
	C108.524780,28.005911 102.094635,34.519455 98.423943,42.896503 
	C95.964828,48.508537 95.600662,55.330883 95.530243,61.625431 
	C95.436050,70.045876 99.036461,77.202049 105.625130,82.788391 
	C106.288567,83.350891 106.090553,85.961769 105.371780,86.957603 
	C99.983925,94.422318 93.387672,96.895309 83.574753,95.609451 
	C74.912041,94.474327 65.344803,96.349701 56.837292,99.008629 
	C48.191807,101.710686 39.680683,106.066498 32.332039,111.385468 
	C23.066799,118.091667 15.197867,126.642860 10.275251,137.357376 
	C7.415370,143.582169 4.581535,149.818924 1.367989,156.025146 
	C1.000000,104.410309 1.000000,52.820614 1.000000,1.000000 
	C47.020638,1.000000 93.041656,1.000000 139.531342,1.000001 
z"/>
<path fill="none" opacity="1.000000" stroke="none" 
	d="
M1.000001,196.468658 
	C2.648854,199.181366 4.751099,202.212830 5.861762,205.572128 
	C9.228380,215.754730 15.096689,224.287582 22.268814,232.061432 
	C29.135046,239.503723 37.159725,245.422455 46.284973,249.744644 
	C51.410862,252.172501 56.772301,254.103058 62.013809,256.628845 
	C41.739849,257.000000 21.479700,257.000000 1.000000,257.000000 
	C1.000000,236.979645 1.000000,216.958481 1.000001,196.468658 
z"/>
<path fill="none" opacity="1.000000" stroke="none" 
	d="
M257.000000,30.531342 
	C255.537354,28.998888 253.804626,27.140572 252.658142,24.972284 
	C247.304855,14.847892 239.261307,7.723732 228.912689,3.042806 
	C228.207520,2.723842 227.607285,2.172916 226.979126,1.364933 
	C236.926498,1.000000 246.853012,1.000000 257.000000,1.000000 
	C257.000000,10.686449 257.000000,20.374567 257.000000,30.531342 
z"/>
<path fill="none" opacity="1.000000" stroke="none" 
	d="
M231.832108,36.281151 
	C238.738739,48.702427 231.378036,58.550259 224.061630,65.944862 
	C218.201904,71.867203 212.159622,77.608528 206.269669,83.501465 
	C200.505920,89.268135 194.881348,95.174110 189.105484,100.928383 
	C183.319595,106.692642 177.384827,112.307281 171.582718,118.055550 
	C163.708084,125.857109 155.899872,133.725723 148.058472,141.560883 
	C144.474045,145.142456 140.636124,148.512650 137.424088,152.400803 
	C136.352463,153.697998 136.465302,156.363556 136.733856,158.307251 
	C137.655960,164.981186 140.084976,171.672195 139.756989,178.247833 
	C139.017822,193.067673 134.282501,206.739441 122.625992,216.804306 
	C116.864609,221.779007 110.913879,227.381897 104.022743,230.006927 
	C93.014809,234.200165 81.491180,236.701004 69.124161,233.259033 
	C56.925293,229.863846 46.363220,224.044662 38.071266,215.034332 
	C30.224743,206.508041 25.654068,195.817123 23.929989,184.100174 
	C21.355394,166.603043 26.754099,151.228668 37.788204,138.229279 
	C45.544888,129.091034 55.759617,122.809830 67.894615,119.875412 
	C76.993401,117.675179 85.821976,117.047661 94.790680,119.847504 
	C104.632103,122.919800 104.513672,122.616966 111.563118,114.952553 
	C119.060707,106.800896 127.010185,99.042885 135.063828,91.432014 
	C140.872543,85.942642 141.055710,85.678551 135.469864,79.938171 
	C130.376297,74.703682 125.075569,69.610672 120.518173,63.932014 
	C116.248795,58.612240 117.670357,52.711189 123.331680,48.395557 
	C126.802963,45.749397 132.668549,46.900124 136.527603,50.775608 
	C137.774414,52.027740 139.445114,52.857792 141.141693,54.033184 
	C143.701401,51.691200 146.128876,49.470219 148.935440,46.902397 
	C147.655319,45.146755 146.453064,43.199757 144.960068,41.509571 
	C141.354095,37.427353 140.854980,30.767302 144.067596,27.616087 
	C149.829117,21.964684 154.209290,21.554562 159.674622,26.221701 
	C161.532883,27.808569 163.294403,29.508736 165.377243,31.410101 
	C166.650955,29.571783 167.353577,27.877781 168.606369,26.862871 
	C175.380814,21.374763 180.384964,22.033981 185.961212,28.920717 
	C190.023178,33.937305 192.071548,34.054234 196.868698,29.631588 
	C210.470078,17.092010 226.145706,24.724312 231.832108,36.281151 
M71.647301,153.910004 
	C71.381271,154.109192 71.139786,154.359894 70.845627,154.500046 
	C61.788509,158.814941 57.219162,166.242096 57.105068,176.013840 
	C56.990181,185.853027 61.401379,193.047119 70.344650,198.129059 
	C79.609116,203.393539 93.069672,201.685440 101.004700,191.649841 
	C108.028481,182.766739 108.812111,171.442734 100.459503,160.684799 
	C94.412560,152.896500 83.286011,149.528641 71.647301,153.910004 
z"/>
<path fill="#A4ADB6" opacity="1.000000" stroke="none" 
	d="
M71.959442,153.668671 
	C83.286011,149.528641 94.412560,152.896500 100.459503,160.684799 
	C108.812111,171.442734 108.028481,182.766739 101.004700,191.649841 
	C93.069672,201.685440 79.609116,203.393539 70.344650,198.129059 
	C61.401379,193.047119 56.990181,185.853027 57.105068,176.013840 
	C57.219162,166.242096 61.788509,158.814941 70.845627,154.500046 
	C71.139786,154.359894 71.381271,154.109192 71.959442,153.668671 
z"/>
</svg>