<svg version="1.1" id="Layer_1" xmlns="http://www.w3.org/2000/svg" xmlns:xlink="http://www.w3.org/1999/xlink" x="0px" y="0px"
	 width="12" height="12" viewBox="0 0 512 512" enable-background="new 0 0 512 512" xml:space="preserve">
<path fill="#FFFFFF" opacity="1.000000" stroke="none" 
	d="
M293.000000,513.000000 
	C269.312439,513.000000 245.624878,513.000000 221.520691,512.595581 
	C220.911682,511.930542 220.761185,511.491180 220.520859,511.434784 
	C208.553696,508.627716 196.501617,506.143097 184.630814,502.978119 
	C176.100021,500.703644 167.646255,497.932831 159.458206,494.637756 
	C151.014572,491.239777 142.602249,487.503784 134.772629,482.901123 
	C123.021034,475.992889 111.385658,468.742859 100.460678,460.616638 
	C91.202812,453.730499 82.571472,445.837463 74.488075,437.582001 
	C65.991188,428.904358 58.052757,419.589966 50.662575,409.946686 
	C44.644104,402.093323 39.558552,393.484070 34.496475,384.950684 
	C29.832617,377.088593 25.046713,369.170288 21.590843,360.752716 
	C17.245916,350.169739 13.878263,339.146637 10.691072,328.139099 
	C8.004111,318.859222 6.261844,309.309082 3.911523,299.926147 
	C3.310062,297.524994 1.989944,295.303833 0.999998,293.000000 
	C1.000000,269.312439 1.000000,245.624878 1.401338,221.533096 
	C2.863053,216.735825 4.246839,212.392136 4.926380,207.940933 
	C7.513826,190.992386 12.461282,174.761887 19.439758,159.147644 
	C23.109573,150.936493 26.554466,142.548447 31.082628,134.815125 
	C37.926212,123.127396 45.063885,111.522652 53.135998,100.670677 
	C60.054893,91.369049 67.871452,82.540375 76.354355,74.645004 
	C87.546844,64.227707 99.600861,54.700687 111.643654,45.248512 
	C116.984558,41.056538 123.102882,37.803917 129.051529,34.449852 
	C137.150681,29.883255 145.111755,24.838778 153.699280,21.426966 
	C166.006470,16.537334 178.796387,12.843816 191.443634,8.839940 
	C195.494995,7.557360 199.735016,6.849931 203.910873,5.986632 
	C209.228653,4.887264 214.577682,3.937225 219.884705,2.790821 
	C220.363098,2.687480 220.633179,1.619825 221.000000,1.000001 
	C244.687561,1.000000 268.375122,1.000000 292.464111,1.400093 
	C295.477936,2.537145 298.074554,3.336451 300.705322,4.000572 
	C314.041321,7.367186 327.559357,10.142845 340.670624,14.226719 
	C350.333466,17.236481 359.701172,21.474451 368.777924,26.010540 
	C378.964081,31.101061 388.937866,36.733845 398.514465,42.892002 
	C407.123993,48.428295 415.413544,54.591660 423.216888,61.217281 
	C431.711426,68.429741 439.870850,76.133675 447.448883,84.298576 
	C453.648407,90.978149 458.974091,98.508949 464.326996,105.922417 
	C469.406250,112.956863 474.307251,120.156082 478.754425,127.600777 
	C483.280579,135.177811 487.712036,142.905060 491.179749,150.997314 
	C495.634125,161.392273 499.714478,172.038208 502.802551,182.903839 
	C506.255585,195.053558 508.400238,207.574188 511.206299,219.912491 
	C511.314087,220.386444 512.380371,220.642441 513.000000,221.000000 
	C513.000000,244.687561 513.000000,268.375122 512.599915,292.463959 
	C511.868103,293.207458 511.323486,293.502441 511.235565,293.898743 
	C508.393951,306.705627 506.060760,319.648163 502.631104,332.293701 
	C500.292480,340.916595 496.672089,349.228271 493.182556,357.492371 
	C489.633148,365.898163 486.123505,374.414948 481.538300,382.265045 
	C475.989929,391.764099 469.537903,400.763916 463.087921,409.698914 
	C457.716309,417.140015 452.284790,424.651825 445.988647,431.286652 
	C434.525848,443.365997 422.462769,454.878662 408.446289,464.108032 
	C399.365356,470.087555 390.840485,477.119232 381.221649,482.022034 
	C369.026123,488.238251 356.763641,494.331879 343.530640,498.681702 
	C328.827484,503.514832 314.110291,507.592712 298.906067,510.208649 
	C296.838501,510.564362 294.963928,512.041870 293.000000,513.000000 
M149.630798,429.891876 
	C241.388229,486.971191 355.082703,460.799927 415.008636,384.435211 
	C373.437347,335.940186 320.828644,309.339783 256.878082,309.367798 
	C192.842407,309.395813 140.276657,336.098358 98.570068,384.909576 
	C101.702965,388.284180 104.275986,391.149780 106.950577,393.917206 
	C112.646187,399.810425 117.966034,406.166901 124.229599,411.385773 
	C132.070312,417.918732 140.704025,423.499969 149.630798,429.891876 
M307.474670,123.905525 
	C302.245728,120.074608 297.242767,115.868385 291.712372,112.538109 
	C287.689331,110.115540 283.103516,107.917603 278.532745,107.260895 
	C268.682007,105.845566 258.887604,102.392242 248.719635,105.006950 
	C241.928391,106.753334 235.030045,108.204437 228.416504,110.477020 
	C224.174866,111.934555 220.334183,114.592285 216.365891,116.805473 
	C205.737762,122.732964 197.950058,131.517258 192.002213,141.920502 
	C189.257263,146.721603 187.407166,152.026001 184.977249,157.017456 
	C181.147995,164.883392 181.720596,173.445236 181.586945,181.697983 
	C181.444305,190.503494 183.118301,199.065948 186.616333,207.592819 
	C190.984100,218.239746 197.160583,227.396286 205.076401,235.207550 
	C212.998520,243.025009 222.813477,248.224274 233.511307,251.969025 
	C252.856903,258.740906 271.533997,257.400940 289.426727,248.031601 
	C297.154083,243.985275 304.849304,239.099472 310.999115,233.017609 
	C318.507477,225.592239 323.461182,216.150635 327.857544,206.231110 
	C333.839386,192.734085 333.444763,178.832504 331.267822,165.488708 
	C328.666992,149.546844 320.554535,135.396973 307.474670,123.905525 
z"/>
<path fill="none" opacity="1.000000" stroke="none" 
	d="
M513.000000,220.531342 
	C512.380371,220.642441 511.314087,220.386444 511.206299,219.912491 
	C508.400238,207.574188 506.255585,195.053558 502.802551,182.903839 
	C499.714478,172.038208 495.634125,161.392273 491.179749,150.997314 
	C487.712036,142.905060 483.280579,135.177811 478.754425,127.600777 
	C474.307251,120.156082 469.406250,112.956863 464.326996,105.922417 
	C458.974091,98.508949 453.648407,90.978149 447.448883,84.298576 
	C439.870850,76.133675 431.711426,68.429741 423.216888,61.217281 
	C415.413544,54.591660 407.123993,48.428295 398.514465,42.892002 
	C388.937866,36.733845 378.964081,31.101061 368.777924,26.010540 
	C359.701172,21.474451 350.333466,17.236481 340.670624,14.226719 
	C327.559357,10.142845 314.041321,7.367186 300.705322,4.000572 
	C298.074554,3.336451 295.477936,2.537145 292.932800,1.400093 
	C366.260345,1.000000 439.520721,1.000000 513.000000,1.000000 
	C513.000000,74.020752 513.000000,147.041718 513.000000,220.531342 
z"/>
<path fill="none" opacity="1.000000" stroke="none" 
	d="
M293.468658,513.000000 
	C294.963928,512.041870 296.838501,510.564362 298.906067,510.208649 
	C314.110291,507.592712 328.827484,503.514832 343.530640,498.681702 
	C356.763641,494.331879 369.026123,488.238251 381.221649,482.022034 
	C390.840485,477.119232 399.365356,470.087555 408.446289,464.108032 
	C422.462769,454.878662 434.525848,443.365997 445.988647,431.286652 
	C452.284790,424.651825 457.716309,417.140015 463.087921,409.698914 
	C469.537903,400.763916 475.989929,391.764099 481.538300,382.265045 
	C486.123505,374.414948 489.633148,365.898163 493.182556,357.492371 
	C496.672089,349.228271 500.292480,340.916595 502.631104,332.293701 
	C506.060760,319.648163 508.393951,306.705627 511.235565,293.898743 
	C511.323486,293.502441 511.868103,293.207458 512.599915,292.932617 
	C513.000000,366.260345 513.000000,439.520721 513.000000,513.000000 
	C439.979248,513.000000 366.958282,513.000000 293.468658,513.000000 
z"/>
<path fill="none" opacity="1.000000" stroke="none" 
	d="
M0.999998,293.468658 
	C1.989944,295.303833 3.310062,297.524994 3.911523,299.926147 
	C6.261844,309.309082 8.004111,318.859222 10.691072,328.139099 
	C13.878263,339.146637 17.245916,350.169739 21.590843,360.752716 
	C25.046713,369.170288 29.832617,377.088593 34.496475,384.950684 
	C39.558552,393.484070 44.644104,402.093323 50.662575,409.946686 
	C58.052757,419.589966 65.991188,428.904358 74.488075,437.582001 
	C82.571472,445.837463 91.202812,453.730499 100.460678,460.616638 
	C111.385658,468.742859 123.021034,475.992889 134.772629,482.901123 
	C142.602249,487.503784 151.014572,491.239777 159.458206,494.637756 
	C167.646255,497.932831 176.100021,500.703644 184.630814,502.978119 
	C196.501617,506.143097 208.553696,508.627716 220.520859,511.434784 
	C220.761185,511.491180 220.911682,511.930542 221.052032,512.595581 
	C147.739639,513.000000 74.479271,513.000000 1.000000,513.000000 
	C1.000000,439.979248 1.000000,366.958282 0.999998,293.468658 
z"/>
<path fill="none" opacity="1.000000" stroke="none" 
	d="
M220.531342,1.000001 
	C220.633179,1.619825 220.363098,2.687480 219.884705,2.790821 
	C214.577682,3.937225 209.228653,4.887264 203.910873,5.986632 
	C199.735016,6.849931 195.494995,7.557360 191.443634,8.839940 
	C178.796387,12.843816 166.006470,16.537334 153.699280,21.426966 
	C145.111755,24.838778 137.150681,29.883255 129.051529,34.449852 
	C123.102882,37.803917 116.984558,41.056538 111.643654,45.248512 
	C99.600861,54.700687 87.546844,64.227707 76.354355,74.645004 
	C67.871452,82.540375 60.054893,91.369049 53.135998,100.670677 
	C45.063885,111.522652 37.926212,123.127396 31.082628,134.815125 
	C26.554466,142.548447 23.109573,150.936493 19.439758,159.147644 
	C12.461282,174.761887 7.513826,190.992386 4.926380,207.940933 
	C4.246839,212.392136 2.863053,216.735825 1.401338,221.064438 
	C1.000000,147.739624 1.000000,74.479256 1.000000,1.000000 
	C74.020752,1.000000 147.041718,1.000000 220.531342,1.000001 
z"/>
<path fill="none" opacity="1.000000" stroke="none" 
	d="
M149.313110,429.691956 
	C140.704025,423.499969 132.070312,417.918732 124.229599,411.385773 
	C117.966034,406.166901 112.646187,399.810425 106.950577,393.917206 
	C104.275986,391.149780 101.702965,388.284180 98.570068,384.909576 
	C140.276657,336.098358 192.842407,309.395813 256.878082,309.367798 
	C320.828644,309.339783 373.437347,335.940186 415.008636,384.435211 
	C355.082703,460.799927 241.388229,486.971191 149.313110,429.691956 
z"/>
<path fill="none" opacity="1.000000" stroke="none" 
	d="
M307.725281,124.173889 
	C320.554535,135.396973 328.666992,149.546844 331.267822,165.488708 
	C333.444763,178.832504 333.839386,192.734085 327.857544,206.231110 
	C323.461182,216.150635 318.507477,225.592239 310.999115,233.017609 
	C304.849304,239.099472 297.154083,243.985275 289.426727,248.031601 
	C271.533997,257.400940 252.856903,258.740906 233.511307,251.969025 
	C222.813477,248.224274 212.998520,243.025009 205.076401,235.207550 
	C197.160583,227.396286 190.984100,218.239746 186.616333,207.592819 
	C183.118301,199.065948 181.444305,190.503494 181.586945,181.697983 
	C181.720596,173.445236 181.147995,164.883392 184.977249,157.017456 
	C187.407166,152.026001 189.257263,146.721603 192.002213,141.920502 
	C197.950058,131.517258 205.737762,122.732964 216.365891,116.805473 
	C220.334183,114.592285 224.174866,111.934555 228.416504,110.477020 
	C235.030045,108.204437 241.928391,106.753334 248.719635,105.006950 
	C258.887604,102.392242 268.682007,105.845566 278.532745,107.260895 
	C283.103516,107.917603 287.689331,110.115540 291.712372,112.538109 
	C297.242767,115.868385 302.245728,120.074608 307.725281,124.173889 
z"/>
</svg>