<svg version="1.1" id="Layer_1" xmlns="http://www.w3.org/2000/svg" xmlns:xlink="http://www.w3.org/1999/xlink" x="0px" y="0px"
	 width="12" height="12" viewBox="0 0 512 512" enable-background="new 0 0 512 512" xml:space="preserve">
<path fill="none" opacity="1.000000" stroke="none" 
	d="
M111.000000,513.000000 
	C74.352325,513.000000 37.704647,513.000000 1.028485,513.000000 
	C1.028485,342.440704 1.028485,171.881424 1.028485,1.000000 
	C75.020584,1.000000 149.041626,1.000000 223.425385,1.359549 
	C207.561722,7.016071 204.607269,20.087633 204.869522,35.000023 
	C195.777939,35.000023 187.132858,34.947376 178.488770,35.016865 
	C171.709579,35.071365 165.772125,39.255474 164.096558,45.930214 
	C162.968124,50.425468 162.976364,55.206062 162.460938,60.000000 
	C148.705704,60.000000 135.039795,59.639294 121.407806,60.162338 
	C115.212189,60.400059 108.554451,61.239578 103.021408,63.790749 
	C84.498260,72.331383 77.000435,87.991173 77.000320,107.794670 
	C76.999664,220.617706 76.976288,333.440765 77.043312,446.263763 
	C77.048904,455.680206 77.553566,465.101868 78.024628,474.511200 
	C78.827148,490.541290 87.157982,501.682343 101.053345,508.955841 
	C104.209702,510.608032 107.676239,511.667633 111.000000,513.000000 
z"/>
<path fill="none" opacity="1.000000" stroke="none" 
	d="
M290.000000,1.000000 
	C364.294830,1.000000 438.589691,1.000000 512.940430,1.000000 
	C512.940430,171.666672 512.940430,342.333344 512.940430,513.000000 
	C476.566345,513.000000 440.251831,513.000000 403.588806,512.627808 
	C411.852295,510.801636 419.063171,506.526550 424.979156,500.385345 
	C433.751587,491.278992 436.936768,479.766571 436.945923,467.481964 
	C437.035553,346.830811 437.012299,226.179565 436.947052,105.528381 
	C436.944855,101.460152 436.766846,97.215836 435.641510,93.353485 
	C429.164307,71.122673 413.590271,60.670269 391.832886,60.062164 
	C379.510742,59.717770 367.171112,60.008636 354.839386,59.986877 
	C353.579956,59.984657 352.320862,59.800106 351.000000,59.695274 
	C351.000000,56.987122 350.811249,54.640770 351.032837,52.333832 
	C351.968170,42.596188 343.277100,34.327171 333.744446,34.899689 
	C325.650909,35.385780 317.505035,35.000000 309.585510,35.000000 
	C308.898438,29.421904 308.720612,24.152973 307.528168,19.124647 
	C305.312469,9.781185 298.494812,4.483216 290.000000,1.000000 
z"/>
<path fill="#FFFFFF" opacity="1.000000" stroke="none" 
	d="
M289.531342,1.000000 
	C298.494812,4.483216 305.312469,9.781185 307.528168,19.124647 
	C308.720612,24.152973 308.898438,29.421904 309.585510,35.000000 
	C317.505035,35.000000 325.650909,35.385780 333.744446,34.899689 
	C343.277100,34.327171 351.968170,42.596188 351.032837,52.333832 
	C350.811249,54.640770 351.000000,56.987122 351.000000,59.695274 
	C352.320862,59.800106 353.579956,59.984657 354.839386,59.986877 
	C367.171112,60.008636 379.510742,59.717770 391.832886,60.062164 
	C413.590271,60.670269 429.164307,71.122673 435.641510,93.353485 
	C436.766846,97.215836 436.944855,101.460152 436.947052,105.528381 
	C437.012299,226.179565 437.035553,346.830811 436.945923,467.481964 
	C436.936768,479.766571 433.751587,491.278992 424.979156,500.385345 
	C419.063171,506.526550 411.852295,510.801636 403.120148,512.627808 
	C305.979095,513.000000 208.958206,513.000000 111.468658,513.000000 
	C107.676239,511.667633 104.209702,510.608032 101.053345,508.955841 
	C87.157982,501.682343 78.827148,490.541290 78.024628,474.511200 
	C77.553566,465.101868 77.048904,455.680206 77.043312,446.263763 
	C76.976288,333.440765 76.999664,220.617706 77.000320,107.794670 
	C77.000435,87.991173 84.498260,72.331383 103.021408,63.790749 
	C108.554451,61.239578 115.212189,60.400059 121.407806,60.162338 
	C135.039795,59.639294 148.705704,60.000000 162.460938,60.000000 
	C162.976364,55.206062 162.968124,50.425468 164.096558,45.930214 
	C165.772125,39.255474 171.709579,35.071365 178.488770,35.016865 
	C187.132858,34.947376 195.777939,35.000023 204.869522,35.000023 
	C204.607269,20.087633 207.561722,7.016071 223.894043,1.359549 
	C245.687561,1.000000 267.375122,1.000000 289.531342,1.000000 
M95.000000,111.547241 
	C95.000000,224.016312 94.978661,336.485382 95.043129,448.954437 
	C95.047951,457.363373 95.499908,465.782715 96.041496,474.178009 
	C96.745468,485.090240 107.547585,494.993927 118.492065,494.994965 
	C210.799896,495.003784 303.107727,495.003479 395.415558,494.971313 
	C397.008789,494.970734 398.652191,494.717316 400.187164,494.282074 
	C413.731476,490.441467 418.887604,480.339111 418.907776,466.042053 
	C419.071808,349.741058 419.014221,233.439774 418.957581,117.138603 
	C418.954773,111.395706 418.545563,105.631287 417.954987,99.915184 
	C416.923553,89.932144 411.694855,81.662346 401.948517,80.334518 
	C385.240997,78.058311 368.224457,78.050102 351.000000,77.070435 
	C351.000000,89.982758 351.026306,101.450157 350.991669,112.917389 
	C350.963928,122.102257 344.084259,128.998398 335.016083,128.998825 
	C283.530304,129.001266 232.041794,128.728928 180.561249,129.248245 
	C171.222809,129.342453 162.286957,120.980560 162.847656,111.484085 
	C163.500504,100.427414 163.000000,89.302650 163.000000,78.000618 
	C148.783585,78.000618 135.126709,77.616203 121.508133,78.171204 
	C115.190826,78.428650 108.869080,79.744331 103.701439,84.622314 
	C96.032104,91.861771 94.985954,100.947220 95.000000,111.547241 
M181.000275,108.322266 
	C180.546646,112.281403 183.546783,110.954445 185.329590,110.956474 
	C233.295319,111.011086 281.261108,110.999985 329.226898,110.999977 
	C330.349426,110.999977 331.471954,110.999977 332.641907,110.999977 
	C332.641907,91.434326 332.641907,72.253899 332.641907,52.999969 
	C321.960632,52.999969 311.609589,53.468590 301.322388,52.859482 
	C292.232239,52.321251 290.532715,49.502075 290.945526,42.746021 
	C291.229431,38.100029 291.158447,33.415840 290.958008,28.761129 
	C290.728607,23.434067 287.718170,18.870283 282.687012,18.926573 
	C265.534729,19.118490 248.378754,19.047112 231.224731,18.963707 
	C227.402023,18.945120 224.618591,20.544937 224.127258,24.168747 
	C223.358719,29.836924 223.141403,35.603127 223.044174,41.333797 
	C222.882156,50.882740 220.857132,52.991783 211.104355,52.998489 
	C201.168503,53.005325 191.232651,53.000000 181.000000,53.000000 
	C181.000000,71.441025 181.000000,89.394630 181.000275,108.322266 
z"/>
<path fill="none" opacity="1.000000" stroke="none" 
	d="
M95.000000,111.056168 
	C94.985954,100.947220 96.032104,91.861771 103.701439,84.622314 
	C108.869080,79.744331 115.190826,78.428650 121.508133,78.171204 
	C135.126709,77.616203 148.783585,78.000618 163.000000,78.000618 
	C163.000000,89.302650 163.500504,100.427414 162.847656,111.484085 
	C162.286957,120.980560 171.222809,129.342453 180.561249,129.248245 
	C232.041794,128.728928 283.530304,129.001266 335.016083,128.998825 
	C344.084259,128.998398 350.963928,122.102257 350.991669,112.917389 
	C351.026306,101.450157 351.000000,89.982758 351.000000,77.070435 
	C368.224457,78.050102 385.240997,78.058311 401.948517,80.334518 
	C411.694855,81.662346 416.923553,89.932144 417.954987,99.915184 
	C418.545563,105.631287 418.954773,111.395706 418.957581,117.138603 
	C419.014221,233.439774 419.071808,349.741058 418.907776,466.042053 
	C418.887604,480.339111 413.731476,490.441467 400.187164,494.282074 
	C398.652191,494.717316 397.008789,494.970734 395.415558,494.971313 
	C303.107727,495.003479 210.799896,495.003784 118.492065,494.994965 
	C107.547585,494.993927 96.745468,485.090240 96.041496,474.178009 
	C95.499908,465.782715 95.047951,457.363373 95.043129,448.954437 
	C94.978661,336.485382 95.000000,224.016312 95.000000,111.056168 
M205.500000,428.000000 
	C231.145737,428.000000 256.791565,428.027985 282.436981,427.940857 
	C284.265137,427.934662 286.400360,427.537628 287.858246,426.540680 
	C292.051453,423.673126 292.386078,419.183380 290.844727,414.981537 
	C289.404144,411.054230 285.524017,410.013275 281.573944,410.011658 
	C236.610641,409.993347 191.647339,409.990662 146.684036,410.011353 
	C140.817795,410.014069 137.005081,413.624969 137.000122,418.989716 
	C136.995087,424.436310 140.753250,427.995819 146.547302,427.997650 
	C165.864868,428.003815 185.182434,428.000000 205.500000,428.000000 
M291.409424,187.931732 
	C290.245270,181.297256 288.652405,180.001358 281.650543,180.000320 
	C272.824890,179.999008 263.999207,180.000000 255.173538,180.000000 
	C218.871735,180.000000 182.569916,179.998795 146.268112,180.002213 
	C143.309952,180.002502 140.664520,179.944351 138.865997,183.359695 
	C134.550247,191.555191 138.524124,197.990112 148.319519,197.993500 
	C191.781784,198.008499 235.244141,198.050690 278.706207,197.957581 
	C287.494080,197.938766 290.325867,196.319244 291.409424,187.931732 
M196.500000,351.000000 
	C225.299393,351.000000 254.098770,351.008179 282.898163,350.993683 
	C289.308655,350.990479 292.928101,345.971649 291.014313,339.828278 
	C289.456573,334.827850 286.513031,333.006958 279.773529,333.005341 
	C236.324738,332.994904 192.875961,332.999908 149.427170,333.000427 
	C148.428375,333.000427 147.410675,332.882385 146.433853,333.030609 
	C140.020828,334.003693 136.475861,337.421173 137.063690,342.592468 
	C137.687515,348.080627 139.368423,351.236572 147.558090,351.086060 
	C163.533859,350.792450 179.518829,351.000000 196.500000,351.000000 
M224.500000,275.000000 
	C241.812546,275.000000 259.125305,275.043152 276.437408,274.955414 
	C279.167389,274.941589 281.922455,274.482971 284.616364,273.969788 
	C288.939270,273.146240 292.289490,268.997406 291.796295,265.361664 
	C290.943115,259.072510 288.731812,257.005127 282.739227,257.004120 
	C237.293808,256.996582 191.848267,257.046356 146.403152,256.929260 
	C141.787613,256.917389 138.125504,258.076996 137.041992,264.561005 
	C136.254913,269.271210 139.009476,272.708923 144.404388,274.049683 
	C146.262924,274.511597 148.190903,274.955322 150.088272,274.959991 
	C174.558746,275.020477 199.029388,275.000000 224.500000,275.000000 
M362.519318,165.988876 
	C355.542114,174.639160 348.564911,183.289429 341.507507,192.039124 
	C339.791046,190.309494 338.385437,188.889359 336.975586,187.473389 
	C335.565613,186.057327 334.166443,184.630081 332.736420,183.234543 
	C328.385742,178.988800 323.064148,178.690826 319.283630,182.172516 
	C314.696960,186.396683 315.669220,191.764496 319.764832,196.173431 
	C324.636169,201.417374 329.757233,206.439178 334.928284,211.392090 
	C340.119995,216.364822 344.583191,216.517929 349.181458,211.180344 
	C357.686798,201.307617 365.767242,191.068207 373.996490,180.958557 
	C377.278137,176.927124 380.887909,173.083450 383.598267,168.691452 
	C385.769135,165.173615 386.264984,161.091187 383.078491,157.335617 
	C380.158264,153.893860 376.283905,152.887695 373.000946,155.202835 
	C369.169708,157.904587 366.307281,161.980164 362.519318,165.988876 
M353.977997,282.536163 
	C363.429504,270.749176 372.868591,258.952148 382.338898,247.180283 
	C385.966431,242.671143 386.214691,235.943268 382.465942,233.082550 
	C379.025452,230.457047 373.044861,229.358475 368.324829,235.222824 
	C359.371368,246.346832 350.547516,257.575134 341.433350,269.058044 
	C338.190674,265.766388 335.047638,262.392181 331.701263,259.233337 
	C328.679138,256.380524 322.674286,256.050079 320.050720,258.428741 
	C315.687225,262.384888 314.630005,266.277435 318.272858,270.585693 
	C323.910095,277.252563 329.925720,283.666962 336.350067,289.568878 
	C339.075378,292.072601 343.483398,293.077332 346.964905,290.353790 
	C349.490295,288.378204 351.315674,285.507782 353.977997,282.536163 
M382.644287,323.899872 
	C385.932129,320.076477 385.926422,315.781433 383.782135,311.616913 
	C381.965973,308.089600 378.185242,307.088898 374.850677,308.192566 
	C371.964111,309.147980 369.340881,311.464294 367.110382,313.689423 
	C364.490753,316.302734 362.438049,319.480835 360.109283,322.389801 
	C353.878052,330.173309 347.630707,337.944000 341.232544,345.915649 
	C338.026703,342.645111 334.920105,339.405518 331.735016,336.245056 
	C328.115662,332.653717 322.136932,332.441467 318.795685,335.706909 
	C315.551605,338.877411 315.690094,345.130646 319.161530,348.641510 
	C324.307556,353.845978 329.507812,358.996765 334.682983,364.172424 
	C340.512970,370.002930 346.462219,369.495667 351.554962,362.989044 
	C361.661530,350.076599 371.888947,337.258728 382.644287,323.899872 
M358.022888,431.461639 
	C358.638885,430.520752 359.177887,429.517456 359.882721,428.648651 
	C367.268463,419.544006 374.689575,410.468079 382.082062,401.368896 
	C385.973114,396.579437 386.053925,390.003143 382.302277,386.811707 
	C378.386719,383.480713 373.069214,384.298859 368.469849,389.083557 
	C366.781067,390.840363 365.311005,392.811554 363.784851,394.719849 
	C356.322449,404.050781 348.874847,413.393524 341.198181,423.012543 
	C338.419983,419.883759 335.685913,416.815247 332.963654,413.736298 
	C329.206787,409.487183 322.536743,409.009247 318.772919,412.728394 
	C314.991364,416.465057 315.263489,421.758118 319.505493,426.019379 
	C324.789459,431.327423 330.073975,436.635590 335.415619,441.885284 
	C340.346863,446.731720 346.979675,446.031677 350.975647,440.437317 
	C353.044586,437.540802 355.331177,434.799713 358.022888,431.461639 
z"/>
<path fill="none" opacity="1.000000" stroke="none" 
	d="
M181.000137,107.835251 
	C181.000000,89.394630 181.000000,71.441025 181.000000,53.000000 
	C191.232651,53.000000 201.168503,53.005325 211.104355,52.998489 
	C220.857132,52.991783 222.882156,50.882740 223.044174,41.333797 
	C223.141403,35.603127 223.358719,29.836924 224.127258,24.168747 
	C224.618591,20.544937 227.402023,18.945120 231.224731,18.963707 
	C248.378754,19.047112 265.534729,19.118490 282.687012,18.926573 
	C287.718170,18.870283 290.728607,23.434067 290.958008,28.761129 
	C291.158447,33.415840 291.229431,38.100029 290.945526,42.746021 
	C290.532715,49.502075 292.232239,52.321251 301.322388,52.859482 
	C311.609589,53.468590 321.960632,52.999969 332.641907,52.999969 
	C332.641907,72.253899 332.641907,91.434326 332.641907,110.999977 
	C331.471954,110.999977 330.349426,110.999977 329.226898,110.999977 
	C281.261108,110.999985 233.295319,111.011086 185.329590,110.956474 
	C183.546783,110.954445 180.546646,112.281403 181.000137,107.835251 
z"/>
<path fill="#FFFFFF" opacity="1.000000" stroke="none" 
	d="
M205.000000,428.000000 
	C185.182434,428.000000 165.864868,428.003815 146.547302,427.997650 
	C140.753250,427.995819 136.995087,424.436310 137.000122,418.989716 
	C137.005081,413.624969 140.817795,410.014069 146.684036,410.011353 
	C191.647339,409.990662 236.610641,409.993347 281.573944,410.011658 
	C285.524017,410.013275 289.404144,411.054230 290.844727,414.981537 
	C292.386078,419.183380 292.051453,423.673126 287.858246,426.540680 
	C286.400360,427.537628 284.265137,427.934662 282.436981,427.940857 
	C256.791565,428.027985 231.145737,428.000000 205.000000,428.000000 
z"/>
<path fill="#FFFFFF" opacity="1.000000" stroke="none" 
	d="
M291.680237,188.230133 
	C290.325867,196.319244 287.494080,197.938766 278.706207,197.957581 
	C235.244141,198.050690 191.781784,198.008499 148.319519,197.993500 
	C138.524124,197.990112 134.550247,191.555191 138.865997,183.359695 
	C140.664520,179.944351 143.309952,180.002502 146.268112,180.002213 
	C182.569916,179.998795 218.871735,180.000000 255.173538,180.000000 
	C263.999207,180.000000 272.824890,179.999008 281.650543,180.000320 
	C288.652405,180.001358 290.245270,181.297256 291.680237,188.230133 
z"/>
<path fill="#FFFFFF" opacity="1.000000" stroke="none" 
	d="
M196.000000,351.000000 
	C179.518829,351.000000 163.533859,350.792450 147.558090,351.086060 
	C139.368423,351.236572 137.687515,348.080627 137.063690,342.592468 
	C136.475861,337.421173 140.020828,334.003693 146.433853,333.030609 
	C147.410675,332.882385 148.428375,333.000427 149.427170,333.000427 
	C192.875961,332.999908 236.324738,332.994904 279.773529,333.005341 
	C286.513031,333.006958 289.456573,334.827850 291.014313,339.828278 
	C292.928101,345.971649 289.308655,350.990479 282.898163,350.993683 
	C254.098770,351.008179 225.299393,351.000000 196.000000,351.000000 
z"/>
<path fill="#FFFFFF" opacity="1.000000" stroke="none" 
	d="
M224.000000,275.000000 
	C199.029388,275.000000 174.558746,275.020477 150.088272,274.959991 
	C148.190903,274.955322 146.262924,274.511597 144.404388,274.049683 
	C139.009476,272.708923 136.254913,269.271210 137.041992,264.561005 
	C138.125504,258.076996 141.787613,256.917389 146.403152,256.929260 
	C191.848267,257.046356 237.293808,256.996582 282.739227,257.004120 
	C288.731812,257.005127 290.943115,259.072510 291.796295,265.361664 
	C292.289490,268.997406 288.939270,273.146240 284.616364,273.969788 
	C281.922455,274.482971 279.167389,274.941589 276.437408,274.955414 
	C259.125305,275.043152 241.812546,275.000000 224.000000,275.000000 
z"/>
<path fill="#FFFFFF" opacity="1.000000" stroke="none" 
	d="
M362.771912,165.724274 
	C366.307281,161.980164 369.169708,157.904587 373.000946,155.202835 
	C376.283905,152.887695 380.158264,153.893860 383.078491,157.335617 
	C386.264984,161.091187 385.769135,165.173615 383.598267,168.691452 
	C380.887909,173.083450 377.278137,176.927124 373.996490,180.958557 
	C365.767242,191.068207 357.686798,201.307617 349.181458,211.180344 
	C344.583191,216.517929 340.119995,216.364822 334.928284,211.392090 
	C329.757233,206.439178 324.636169,201.417374 319.764832,196.173431 
	C315.669220,191.764496 314.696960,186.396683 319.283630,182.172516 
	C323.064148,178.690826 328.385742,178.988800 332.736420,183.234543 
	C334.166443,184.630081 335.565613,186.057327 336.975586,187.473389 
	C338.385437,188.889359 339.791046,190.309494 341.507507,192.039124 
	C348.564911,183.289429 355.542114,174.639160 362.771912,165.724274 
z"/>
<path fill="#FFFFFF" opacity="1.000000" stroke="none" 
	d="
M353.715576,282.786255 
	C351.315674,285.507782 349.490295,288.378204 346.964905,290.353790 
	C343.483398,293.077332 339.075378,292.072601 336.350067,289.568878 
	C329.925720,283.666962 323.910095,277.252563 318.272858,270.585693 
	C314.630005,266.277435 315.687225,262.384888 320.050720,258.428741 
	C322.674286,256.050079 328.679138,256.380524 331.701263,259.233337 
	C335.047638,262.392181 338.190674,265.766388 341.433350,269.058044 
	C350.547516,257.575134 359.371368,246.346832 368.324829,235.222824 
	C373.044861,229.358475 379.025452,230.457047 382.465942,233.082550 
	C386.214691,235.943268 385.966431,242.671143 382.338898,247.180283 
	C372.868591,258.952148 363.429504,270.749176 353.715576,282.786255 
z"/>
<path fill="#FFFFFF" opacity="1.000000" stroke="none" 
	d="
M382.355347,324.150818 
	C371.888947,337.258728 361.661530,350.076599 351.554962,362.989044 
	C346.462219,369.495667 340.512970,370.002930 334.682983,364.172424 
	C329.507812,358.996765 324.307556,353.845978 319.161530,348.641510 
	C315.690094,345.130646 315.551605,338.877411 318.795685,335.706909 
	C322.136932,332.441467 328.115662,332.653717 331.735016,336.245056 
	C334.920105,339.405518 338.026703,342.645111 341.232544,345.915649 
	C347.630707,337.944000 353.878052,330.173309 360.109283,322.389801 
	C362.438049,319.480835 364.490753,316.302734 367.110382,313.689423 
	C369.340881,311.464294 371.964111,309.147980 374.850677,308.192566 
	C378.185242,307.088898 381.965973,308.089600 383.782135,311.616913 
	C385.926422,315.781433 385.932129,320.076477 382.355347,324.150818 
z"/>
<path fill="#FFFFFF" opacity="1.000000" stroke="none" 
	d="
M357.771149,431.725006 
	C355.331177,434.799713 353.044586,437.540802 350.975647,440.437317 
	C346.979675,446.031677 340.346863,446.731720 335.415619,441.885284 
	C330.073975,436.635590 324.789459,431.327423 319.505493,426.019379 
	C315.263489,421.758118 314.991364,416.465057 318.772919,412.728394 
	C322.536743,409.009247 329.206787,409.487183 332.963654,413.736298 
	C335.685913,416.815247 338.419983,419.883759 341.198181,423.012543 
	C348.874847,413.393524 356.322449,404.050781 363.784851,394.719849 
	C365.311005,392.811554 366.781067,390.840363 368.469849,389.083557 
	C373.069214,384.298859 378.386719,383.480713 382.302277,386.811707 
	C386.053925,390.003143 385.973114,396.579437 382.082062,401.368896 
	C374.689575,410.468079 367.268463,419.544006 359.882721,428.648651 
	C359.177887,429.517456 358.638885,430.520752 357.771149,431.725006 
z"/>
</svg>