<svg version="1.1" id="Layer_1" xmlns="http://www.w3.org/2000/svg" xmlns:xlink="http://www.w3.org/1999/xlink" x="0px" y="0px"
	 width="22" height="17" viewBox="0 0 512 512" enable-background="new 0 0 512 512" xml:space="preserve">
<path fill="none" opacity="1.000000" stroke="none" 
	d="
M51.000000,513.000000 
	C34.342464,513.000000 17.684925,513.000000 1.020541,513.000000 
	C1.013694,342.435944 1.013694,171.871902 1.013694,1.000000 
	C79.687294,1.000000 158.374985,1.000000 237.404297,1.378053 
	C225.049072,4.097412 212.829575,8.015781 201.428589,14.024882 
	C183.731445,23.352484 168.984879,36.131859 157.672775,52.787319 
	C146.027542,69.933235 138.977448,88.872627 137.177094,109.370773 
	C135.477615,128.720383 138.056564,147.714249 145.387695,165.991516 
	C151.583572,181.438477 160.819214,194.849533 172.339188,206.523758 
	C178.659515,212.928726 186.262680,218.243942 193.850708,223.185593 
	C210.220428,233.846222 228.602295,239.262802 247.897568,240.860443 
	C265.124664,242.286880 282.069794,239.739258 298.406433,233.882309 
	C315.102142,227.896637 329.754883,218.415405 342.215027,205.990265 
	C348.709259,199.514252 354.213715,191.851120 359.211456,184.108536 
	C370.367676,166.825119 376.254303,147.660019 376.907532,127.080391 
	C377.147552,119.518669 377.157684,111.772293 375.801758,104.379944 
	C373.898560,94.003860 371.757019,83.401062 367.686951,73.751663 
	C360.232697,56.079067 349.202026,40.718079 334.049164,28.401695 
	C319.681152,16.723265 303.747467,8.537564 285.864685,3.999633 
	C281.910675,2.996274 277.954926,1.999700 274.000000,0.999999 
	C353.623199,1.000000 433.246429,1.000000 512.934814,1.000000 
	C512.934814,171.666656 512.934814,342.333313 512.934814,513.000000 
	C496.252411,513.000000 479.594879,513.000000 462.559265,512.654785 
	C469.739014,508.746826 474.132172,503.292755 474.059418,494.441132 
	C473.878662,472.448822 473.614716,450.445343 474.109711,428.462677 
	C474.592529,407.020477 471.762634,386.144226 463.794403,366.333862 
	C458.607483,353.438232 452.532745,340.662720 445.047363,328.993378 
	C437.135925,316.659821 427.661469,305.125153 415.664703,296.242249 
	C405.544952,288.749176 395.667999,280.695770 384.741394,274.571350 
	C359.113159,260.206604 331.163605,254.005127 301.822144,254.000519 
	C284.493683,253.997787 267.160522,253.745193 249.837967,254.064713 
	C228.339783,254.461258 206.819595,254.836853 185.367538,256.167206 
	C170.025604,257.118652 155.337784,262.076111 141.454239,268.392242 
	C118.783516,278.705933 98.909721,292.970123 82.310982,311.946350 
	C68.376732,327.876495 57.898521,345.588470 50.389500,365.200623 
	C44.643482,380.208130 40.631306,395.814667 40.205811,411.800903 
	C39.465725,439.606689 39.984276,467.446411 40.037708,495.271820 
	C40.041042,497.005402 40.639744,498.730927 40.870800,500.472229 
	C41.699791,506.719940 47.498573,508.927216 51.000000,513.000000 
z"/>
<path fill="#A4ADB6" opacity="1.000000" stroke="none" 
	d="
M51.468658,513.000000 
	C47.498573,508.927216 41.699791,506.719940 40.870800,500.472229 
	C40.639744,498.730927 40.041042,497.005402 40.037708,495.271820 
	C39.984276,467.446411 39.465725,439.606689 40.205811,411.800903 
	C40.631306,395.814667 44.643482,380.208130 50.389500,365.200623 
	C57.898521,345.588470 68.376732,327.876495 82.310982,311.946350 
	C98.909721,292.970123 118.783516,278.705933 141.454239,268.392242 
	C155.337784,262.076111 170.025604,257.118652 185.367538,256.167206 
	C206.819595,254.836853 228.339783,254.461258 249.837967,254.064713 
	C267.160522,253.745193 284.493683,253.997787 301.822144,254.000519 
	C331.163605,254.005127 359.113159,260.206604 384.741394,274.571350 
	C395.667999,280.695770 405.544952,288.749176 415.664703,296.242249 
	C427.661469,305.125153 437.135925,316.659821 445.047363,328.993378 
	C452.532745,340.662720 458.607483,353.438232 463.794403,366.333862 
	C471.762634,386.144226 474.592529,407.020477 474.109711,428.462677 
	C473.614716,450.445343 473.878662,472.448822 474.059418,494.441132 
	C474.132172,503.292755 469.739014,508.746826 462.090607,512.654785 
	C325.312439,513.000000 188.624878,513.000000 51.468658,513.000000 
z"/>
<path fill="#A4ADB6" opacity="1.000000" stroke="none" 
	d="
M273.531342,0.999999 
	C277.954926,1.999700 281.910675,2.996274 285.864685,3.999633 
	C303.747467,8.537564 319.681152,16.723265 334.049164,28.401695 
	C349.202026,40.718079 360.232697,56.079067 367.686951,73.751663 
	C371.757019,83.401062 373.898560,94.003860 375.801758,104.379944 
	C377.157684,111.772293 377.147552,119.518669 376.907532,127.080391 
	C376.254303,147.660019 370.367676,166.825119 359.211456,184.108536 
	C354.213715,191.851120 348.709259,199.514252 342.215027,205.990265 
	C329.754883,218.415405 315.102142,227.896637 298.406433,233.882309 
	C282.069794,239.739258 265.124664,242.286880 247.897568,240.860443 
	C228.602295,239.262802 210.220428,233.846222 193.850708,223.185593 
	C186.262680,218.243942 178.659515,212.928726 172.339188,206.523758 
	C160.819214,194.849533 151.583572,181.438477 145.387695,165.991516 
	C138.056564,147.714249 135.477615,128.720383 137.177094,109.370773 
	C138.977448,88.872627 146.027542,69.933235 157.672775,52.787319 
	C168.984879,36.131859 183.731445,23.352484 201.428589,14.024882 
	C212.829575,8.015781 225.049072,4.097412 237.872955,1.378053 
	C249.687561,1.000000 261.375122,1.000000 273.531342,0.999999 
z"/>
</svg>